<svg xmlns="http://www.w3.org/2000/svg" xmlns:xlink="http://www.w3.org/1999/xlink" version="1.0" x="0px" y="0px" width="100px" height="100px" viewBox="5.0 -10.0 100.0 135.0" overflow="" enable-background="new 0 0 100 100" xml:space="preserve">
    <path d="M83.152,21.957c0-11.154-6.65-19.662-17.803-19.662c-6.613,0-13.982,5.592-15.352,12.271 c-1.369-6.68-8.738-12.271-15.35-12.271c-11.152,0-17.805,8.508-17.805,19.662c0,6.953,4.48,13.215,9.955,17.168 c11.379,8.223,14.055,9.678,23.199,18.82c9.146-9.143,11.82-10.598,23.201-18.82C78.672,35.172,83.152,28.91,83.152,21.957z"/>
    <path d="M20.588,53.648c0,0.002,0,0.002,0,0.004l-3.842-3.492c-1.004-1.002-2.352-1.426-3.66-1.309 c-1.039,0.09-2.053,0.512-2.846,1.309c-1.799,1.797-1.799,4.711,0,6.506l4.35,3.949l6.855,6.219l4.395,3.986 c0.598,0.541,0.643,1.465,0.104,2.061c-0.545,0.598-1.465,0.639-2.062,0.1L8.785,59.287c-1.809-1.35-2.984-3.506-2.984-5.936 c0-3.932,3.072-7.146,6.943-7.383L9.936,22.662c0-2.541-2.059-4.602-4.602-4.602s-4.6,2.061-4.6,4.602v42.051 c0,1.523,0.74,2.873,1.877,3.711l16.781,15.062c1.539,1.455,2.498,3.516,2.498,5.799V94.5h0.006v0.016 c0,1.83,1.479,3.311,3.307,3.311h12.711c1.832,0,3.311-1.48,3.311-3.311V94.5v-2.459V77.424c-0.023-3.344-1.475-6.35-3.771-8.439 L20.588,53.648z"/>
    <path d="M94.668,18.061c-2.543,0-4.607,2.061-4.607,4.602l-2.807,23.307c3.875,0.236,6.943,3.451,6.943,7.383 c0,2.43-1.172,4.586-2.979,5.936L76.117,72.98c-0.594,0.539-1.52,0.498-2.059-0.1c-0.539-0.596-0.5-1.52,0.098-2.061l4.4-3.986 l6.85-6.219l4.355-3.949c1.799-1.795,1.799-4.709,0-6.506c-0.793-0.797-1.807-1.219-2.846-1.309 c-1.309-0.117-2.656,0.307-3.66,1.309l-3.842,3.492c0-0.002,0-0.002,0-0.004L62.549,68.984c-2.297,2.09-3.748,5.096-3.771,8.439 v14.617V94.5v0.016c0,1.83,1.479,3.311,3.307,3.311h12.709c1.834,0,3.312-1.48,3.312-3.311V94.5v-5.215 c0-2.283,0.967-4.344,2.504-5.799l16.777-15.062c1.141-0.838,1.881-2.188,1.881-3.711V22.662 C99.268,20.121,97.205,18.061,94.668,18.061z"/>
<text x="0.0" y="117.5" font-size="5.0" font-weight="bold" font-family="Helvetica Neue, Helvetica, Arial-Unicode, Arial, Sans-serif" fill="#000000">Created by Scott Lewis</text><text x="0.0" y="122.5" font-size="5.0" font-weight="bold" font-family="Helvetica Neue, Helvetica, Arial-Unicode, Arial, Sans-serif" fill="#000000">from the Noun Project</text></svg>